<svg class="main-svg" xmlns="http://www.w3.org/2000/svg" xmlns:xlink="http://www.w3.org/1999/xlink" width="400" height="400" style="" viewBox="0 0 400 400"><rect x="0" y="0" width="400" height="400" style="fill: rgb(255, 255, 255); fill-opacity: 1;"/><defs id="defs-41307d"><g class="clips"><clipPath id="clip41307dxyplot" class="plotclip"><rect width="400" height="400"/></clipPath><clipPath class="axesclip" id="clip41307dx"><rect x="0" y="0" width="400" height="400"/></clipPath><clipPath class="axesclip" id="clip41307dy"><rect x="0" y="0" width="400" height="400"/></clipPath><clipPath class="axesclip" id="clip41307dxy"><rect x="0" y="0" width="400" height="400"/></clipPath></g><g class="gradients"/></defs><g class="bglayer"><rect class="bg" x="0" y="0" width="400" height="400" style="fill: rgb(255, 255, 255); fill-opacity: 1; stroke-width: 0;"/></g><g class="layer-below"><g class="imagelayer"/><g class="shapelayer"/></g><g class="cartesianlayer"><g class="subplot xy"><g class="layer-subplot"><g class="shapelayer"/><g class="imagelayer"/></g><g class="gridlayer"><g class="x"><path class="xgrid crisp" transform="translate(25,0)" d="M0,0v400" style="stroke: rgb(224, 224, 224); stroke-opacity: 1; stroke-width: 1px;"/><path class="xgrid crisp" transform="translate(50,0)" d="M0,0v400" style="stroke: rgb(224, 224, 224); stroke-opacity: 1; stroke-width: 1px;"/><path class="xgrid crisp" transform="translate(75,0)" d="M0,0v400" style="stroke: rgb(224, 224, 224); stroke-opacity: 1; stroke-width: 1px;"/><path class="xgrid crisp" transform="translate(100,0)" d="M0,0v400" style="stroke: rgb(224, 224, 224); stroke-opacity: 1; stroke-width: 1px;"/><path class="xgrid crisp" transform="translate(125,0)" d="M0,0v400" style="stroke: rgb(224, 224, 224); stroke-opacity: 1; stroke-width: 1px;"/><path class="xgrid crisp" transform="translate(150,0)" d="M0,0v400" style="stroke: rgb(224, 224, 224); stroke-opacity: 1; stroke-width: 1px;"/><path class="xgrid crisp" transform="translate(175,0)" d="M0,0v400" style="stroke: rgb(224, 224, 224); stroke-opacity: 1; stroke-width: 1px;"/><path class="xgrid crisp" transform="translate(225,0)" d="M0,0v400" style="stroke: rgb(224, 224, 224); stroke-opacity: 1; stroke-width: 1px;"/><path class="xgrid crisp" transform="translate(250,0)" d="M0,0v400" style="stroke: rgb(224, 224, 224); stroke-opacity: 1; stroke-width: 1px;"/><path class="xgrid crisp" transform="translate(275,0)" d="M0,0v400" style="stroke: rgb(224, 224, 224); stroke-opacity: 1; stroke-width: 1px;"/><path class="xgrid crisp" transform="translate(300,0)" d="M0,0v400" style="stroke: rgb(224, 224, 224); stroke-opacity: 1; stroke-width: 1px;"/><path class="xgrid crisp" transform="translate(325,0)" d="M0,0v400" style="stroke: rgb(224, 224, 224); stroke-opacity: 1; stroke-width: 1px;"/><path class="xgrid crisp" transform="translate(350,0)" d="M0,0v400" style="stroke: rgb(224, 224, 224); stroke-opacity: 1; stroke-width: 1px;"/><path class="xgrid crisp" transform="translate(375,0)" d="M0,0v400" style="stroke: rgb(224, 224, 224); stroke-opacity: 1; stroke-width: 1px;"/></g><g class="y"><path class="ygrid crisp" transform="translate(0,350)" d="M0,0h400" style="stroke: rgb(224, 224, 224); stroke-opacity: 1; stroke-width: 1px;"/><path class="ygrid crisp" transform="translate(0,300)" d="M0,0h400" style="stroke: rgb(224, 224, 224); stroke-opacity: 1; stroke-width: 1px;"/><path class="ygrid crisp" transform="translate(0,250)" d="M0,0h400" style="stroke: rgb(224, 224, 224); stroke-opacity: 1; stroke-width: 1px;"/><path class="ygrid crisp" transform="translate(0,150)" d="M0,0h400" style="stroke: rgb(224, 224, 224); stroke-opacity: 1; stroke-width: 1px;"/><path class="ygrid crisp" transform="translate(0,100)" d="M0,0h400" style="stroke: rgb(224, 224, 224); stroke-opacity: 1; stroke-width: 1px;"/><path class="ygrid crisp" transform="translate(0,50)" d="M0,0h400" style="stroke: rgb(224, 224, 224); stroke-opacity: 1; stroke-width: 1px;"/></g></g><g class="zerolinelayer"><path class="xzl zl crisp" transform="translate(200,0)" d="M0,0v400" style="stroke: rgb(255, 255, 255); stroke-opacity: 1; stroke-width: 2px;"/><path class="yzl zl crisp" transform="translate(0,200)" d="M0,0h400" style="stroke: rgb(255, 255, 255); stroke-opacity: 1; stroke-width: 2px;"/></g><path class="xlines-below"/><path class="ylines-below"/><g class="overlines-below"/><g class="xaxislayer-below"/><g class="yaxislayer-below"/><g class="overaxes-below"/><g class="plot" transform="" clip-path="url('#clip41307dxyplot')"><g class="scatterlayer mlayer"><g class="trace scatter tracea75b3c" style="stroke-miterlimit: 2; opacity: 1;"><g class="fills"/><g class="errorbars"/><g class="lines"/><g class="points"><path class="point" transform="translate(75,160)" d="M3,0A3,3 0 1,1 0,-3A3,3 0 0,1 3,0Z" style="opacity: 1; stroke-width: 0px; fill: rgb(99, 110, 250); fill-opacity: 1;"/></g><g class="text"><g class="textpoint" transform="translate(0,-10.25)"><text x="75" y="160" text-anchor="middle" style="font-family: 'Open Sans', verdana, arial, sans-serif; font-size: 22px; fill: rgb(42, 63, 95); fill-opacity: 1; white-space: pre;">(-50.0, 8.0)</text></g></g></g><g class="trace scatter tracef9fb0c" style="stroke-miterlimit: 2; opacity: 1;"><g class="fills"/><g class="errorbars"/><g class="lines"/><g class="points"><path class="point" transform="translate(325,160)" d="M3,0A3,3 0 1,1 0,-3A3,3 0 0,1 3,0Z" style="opacity: 1; stroke-width: 0px; fill: rgb(239, 85, 59); fill-opacity: 1;"/></g><g class="text"><g class="textpoint" transform="translate(0,-10.25)"><text x="325" y="160" text-anchor="middle" style="font-family: 'Open Sans', verdana, arial, sans-serif; font-size: 22px; fill: rgb(42, 63, 95); fill-opacity: 1; white-space: pre;">(50.0, 8.0)</text></g></g></g><g class="trace scatter trace4065f2" style="stroke-miterlimit: 2; opacity: 1;"><g class="fills"/><g class="errorbars"/><g class="lines"/><g class="points"><path class="point" transform="translate(75,240)" d="M3,0A3,3 0 1,1 0,-3A3,3 0 0,1 3,0Z" style="opacity: 1; stroke-width: 0px; fill: rgb(0, 204, 150); fill-opacity: 1;"/></g><g class="text"><g class="textpoint" transform="translate(0,-10.25)"><text x="75" y="240" text-anchor="middle" style="font-family: 'Open Sans', verdana, arial, sans-serif; font-size: 22px; fill: rgb(42, 63, 95); fill-opacity: 1; white-space: pre;">(-50.0, -8.0)</text></g></g></g><g class="trace scatter trace2f0e3d" style="stroke-miterlimit: 2; opacity: 1;"><g class="fills"/><g class="errorbars"/><g class="lines"/><g class="points"><path class="point" transform="translate(325,240)" d="M3,0A3,3 0 1,1 0,-3A3,3 0 0,1 3,0Z" style="opacity: 1; stroke-width: 0px; fill: rgb(171, 99, 250); fill-opacity: 1;"/></g><g class="text"><g class="textpoint" transform="translate(0,-10.25)"><text x="325" y="240" text-anchor="middle" style="font-family: 'Open Sans', verdana, arial, sans-serif; font-size: 22px; fill: rgb(42, 63, 95); fill-opacity: 1; white-space: pre;">(50.0, -8.0)</text></g></g></g></g></g><g class="overplot"/><path class="xlines-above crisp" d="M0,0" style="fill: none;"/><path class="ylines-above crisp" d="M0,0" style="fill: none;"/><g class="overlines-above"/><g class="xaxislayer-above"/><g class="yaxislayer-above"/><g class="overaxes-above"/></g></g><g class="polarlayer"/><g class="ternarylayer"/><g class="geolayer"/><g class="funnelarealayer"/><g class="pielayer"/><g class="treemaplayer"/><g class="sunburstlayer"/><g class="glimages"/><defs id="topdefs-41307d"><g class="clips"/></defs><g class="layer-above"><g class="imagelayer"/><g class="shapelayer"><path data-index="0" fill-rule="evenodd" d="M200,400L200,0" clip-path="url('#clip41307dx')" style="opacity: 1; stroke: rgb(42, 63, 95); stroke-opacity: 1; fill: rgb(0, 0, 0); fill-opacity: 0; stroke-width: 3px;"/><path data-index="1" fill-rule="evenodd" d="M0,200L400,200" clip-path="url('#clip41307dy')" style="opacity: 1; stroke: rgb(42, 63, 95); stroke-opacity: 1; fill: rgb(0, 0, 0); fill-opacity: 0; stroke-width: 3px;"/><path data-index="2" fill-rule="evenodd" d="M75,160L325,160" clip-path="url('#clip41307dxy')" style="opacity: 1; stroke: rgb(42, 63, 95); stroke-opacity: 1; fill: rgb(0, 0, 0); fill-opacity: 0; stroke-width: 2px;"/><path data-index="3" fill-rule="evenodd" d="M75,240L325,240" clip-path="url('#clip41307dxy')" style="opacity: 1; stroke: rgb(42, 63, 95); stroke-opacity: 1; fill: rgb(0, 0, 0); fill-opacity: 0; stroke-width: 2px;"/></g></g><g class="infolayer"><g class="g-gtitle"/><g class="g-xtitle"/><g class="g-ytitle"/></g></svg>