<?xml version="1.0" encoding="utf-8" standalone="no"?>
<!DOCTYPE svg PUBLIC "-//W3C//DTD SVG 1.1//EN"
  "http://www.w3.org/Graphics/SVG/1.1/DTD/svg11.dtd">
<svg xmlns:xlink="http://www.w3.org/1999/xlink" width="287.952pt" height="176.4pt" viewBox="0 0 287.952 176.4" xmlns="http://www.w3.org/2000/svg" version="1.1">
 <metadata>
  <rdf:RDF xmlns:dc="http://purl.org/dc/elements/1.1/" xmlns:cc="http://creativecommons.org/ns#" xmlns:rdf="http://www.w3.org/1999/02/22-rdf-syntax-ns#">
   <cc:Work>
    <dc:type rdf:resource="http://purl.org/dc/dcmitype/StillImage"/>
    <dc:date>2025-04-04T20:35:56.849544</dc:date>
    <dc:format>image/svg+xml</dc:format>
    <dc:creator>
     <cc:Agent>
      <dc:title>Matplotlib v3.8.4, https://matplotlib.org/</dc:title>
     </cc:Agent>
    </dc:creator>
   </cc:Work>
  </rdf:RDF>
 </metadata>
 <defs>
  <style type="text/css">*{stroke-linejoin: round; stroke-linecap: butt}</style>
 </defs>
 <g id="figure_1">
  <g id="patch_1">
   <path d="M 0 176.4 
L 287.952 176.4 
L 287.952 0 
L 0 0 
z
" style="fill: #ffffff"/>
  </g>
  <g id="axes_1">
   <g id="patch_2">
    <path d="M 49.272 130.68 
C 54.045656 130.68 58.624438 128.783406 61.999922 125.407922 
C 65.375406 122.032438 67.272 117.453656 67.272 112.68 
C 67.272 107.906344 65.375406 103.327562 61.999922 99.952078 
C 58.624438 96.576594 54.045656 94.68 49.272 94.68 
C 44.498344 94.68 39.919562 96.576594 36.544078 99.952078 
C 33.168594 103.327562 31.272 107.906344 31.272 112.68 
C 31.272 117.453656 33.168594 122.032438 36.544078 125.407922 
C 39.919562 128.783406 44.498344 130.68 49.272 130.68 
L 49.272 130.68 
z
" clip-path="url(#p7e6b4059d2)" style="fill: none; stroke: #000000; stroke-width: 2; stroke-linejoin: miter"/>
   </g>
   <g id="patch_3">
    <path d="M 265.272 94.68 
C 270.045656 94.68 274.624438 92.783406 277.999922 89.407922 
C 281.375406 86.032438 283.272 81.453656 283.272 76.68 
C 283.272 71.906344 281.375406 67.327562 277.999922 63.952078 
C 274.624438 60.576594 270.045656 58.68 265.272 58.68 
C 260.498344 58.68 255.919562 60.576594 252.544078 63.952078 
C 249.168594 67.327562 247.272 71.906344 247.272 76.68 
C 247.272 81.453656 249.168594 86.032438 252.544078 89.407922 
C 255.919562 92.783406 260.498344 94.68 265.272 94.68 
L 265.272 94.68 
z
" clip-path="url(#p7e6b4059d2)" style="fill: none; stroke: #000000; stroke-width: 2; stroke-linejoin: miter"/>
   </g>
   <g id="line2d_1">
    <path d="M 49.272 148.68 
L 49.272 163.08 
L 40.272 163.08 
L 58.272 163.08 
M 42.972 167.4 
L 55.572 167.4 
M 47.472 171.72 
L 51.072 171.72 
" clip-path="url(#p7e6b4059d2)" style="fill: none; stroke: #000000; stroke-width: 2; stroke-linecap: round"/>
   </g>
   <g id="line2d_2">
    <path d="M 49.272 148.68 
L 49.272 130.68 
L 49.272 130.68 
M 49.272 94.68 
L 49.272 94.68 
L 49.272 76.68 
" clip-path="url(#p7e6b4059d2)" style="fill: none; stroke: #000000; stroke-width: 2; stroke-linecap: round"/>
   </g>
   <g id="line2d_3">
    <path d="M 52.872 121.68 
L 45.672 121.68 
" clip-path="url(#p7e6b4059d2)" style="fill: none; stroke: #000000; stroke-width: 2; stroke-linecap: round"/>
   </g>
   <g id="line2d_4">
    <path d="M 49.272 107.28 
L 49.272 100.08 
" clip-path="url(#p7e6b4059d2)" style="fill: none; stroke: #000000; stroke-width: 2; stroke-linecap: round"/>
   </g>
   <g id="line2d_5">
    <path d="M 52.872 103.68 
L 45.672 103.68 
" clip-path="url(#p7e6b4059d2)" style="fill: none; stroke: #000000; stroke-width: 2; stroke-linecap: round"/>
   </g>
   <g id="line2d_6">
    <path d="M 49.272 76.68 
L 49.272 58.68 
L 40.272 55.68 
L 58.272 49.68 
L 40.272 43.68 
L 58.272 37.68 
L 40.272 31.68 
L 58.272 25.68 
L 49.272 22.68 
L 49.272 4.68 
" clip-path="url(#p7e6b4059d2)" style="fill: none; stroke: #000000; stroke-width: 2; stroke-linecap: round"/>
   </g>
   <g id="line2d_7">
    <path d="M 49.272 4.68 
L 85.272 4.68 
L 121.272 4.68 
" clip-path="url(#p7e6b4059d2)" style="fill: none; stroke: #000000; stroke-width: 2; stroke-linecap: round"/>
   </g>
   <g id="line2d_8">
    <path d="M 121.272 4.68 
L 121.272 58.68 
L 130.272 58.68 
L 130.272 94.68 
L 112.272 94.68 
L 112.272 58.68 
L 121.272 58.68 
M 121.272 94.68 
L 121.272 148.68 
" clip-path="url(#p7e6b4059d2)" style="fill: none; stroke: #000000; stroke-width: 2; stroke-linecap: round"/>
   </g>
   <g id="line2d_9">
    <path d="M 121.272 148.68 
L 121.272 163.08 
L 112.272 163.08 
L 130.272 163.08 
M 114.972 167.4 
L 127.572 167.4 
M 119.472 171.72 
L 123.072 171.72 
" clip-path="url(#p7e6b4059d2)" style="fill: none; stroke: #000000; stroke-width: 2; stroke-linecap: round"/>
   </g>
   <g id="line2d_10">
    <path d="M 121.272 4.68 
L 157.272 4.68 
L 193.272 4.68 
" clip-path="url(#p7e6b4059d2)" style="fill: none; stroke: #000000; stroke-width: 2; stroke-linecap: round"/>
   </g>
   <g id="line2d_11">
    <path d="M 193.272 4.68 
L 193.272 58.68 
L 202.272 61.68 
L 184.272 67.68 
L 202.272 73.68 
L 184.272 79.68 
L 202.272 85.68 
L 184.272 91.68 
L 193.272 94.68 
L 193.272 148.68 
" clip-path="url(#p7e6b4059d2)" style="fill: none; stroke: #000000; stroke-width: 2; stroke-linecap: round"/>
   </g>
   <g id="line2d_12">
    <path d="M 193.272 148.68 
L 193.272 163.08 
L 184.272 163.08 
L 202.272 163.08 
M 186.972 167.4 
L 199.572 167.4 
M 191.472 171.72 
L 195.072 171.72 
" clip-path="url(#p7e6b4059d2)" style="fill: none; stroke: #000000; stroke-width: 2; stroke-linecap: round"/>
   </g>
   <g id="line2d_13">
    <path d="M 193.272 4.68 
L 229.272 4.68 
L 265.272 4.68 
" clip-path="url(#p7e6b4059d2)" style="fill: none; stroke: #000000; stroke-width: 2; stroke-linecap: round"/>
   </g>
   <g id="line2d_14">
    <path d="M 265.272 4.68 
L 265.272 58.68 
L 265.272 58.68 
M 265.272 94.68 
L 265.272 94.68 
L 265.272 148.68 
" clip-path="url(#p7e6b4059d2)" style="fill: none; stroke: #000000; stroke-width: 2; stroke-linecap: round"/>
   </g>
   <g id="line2d_15">
    <path d="M 265.272 148.68 
L 265.272 163.08 
L 256.272 163.08 
L 274.272 163.08 
M 258.972 167.4 
L 271.572 167.4 
M 263.472 171.72 
L 267.072 171.72 
" clip-path="url(#p7e6b4059d2)" style="fill: none; stroke: #000000; stroke-width: 2; stroke-linecap: round"/>
   </g>
   <g id="text_1">
    <text style="font: 14px 'DejaVu Sans', 'Bitstream Vera Sans', 'Computer Modern Sans Serif', 'Lucida Grande', 'Verdana', 'Geneva', 'Lucid', 'Arial', 'Helvetica', 'Avant Garde', sans-serif; text-anchor: end" x="27.672" y="116.543125" transform="rotate(-0 27.672 116.543125)">V1</text>
   </g>
   <g id="text_2">
    <text style="font: 14px 'DejaVu Sans', 'Bitstream Vera Sans', 'Computer Modern Sans Serif', 'Lucida Grande', 'Verdana', 'Geneva', 'Lucid', 'Arial', 'Helvetica', 'Avant Garde', sans-serif; text-anchor: end" x="36.672" y="44.543125" transform="rotate(-0 36.672 44.543125)">50Ω</text>
   </g>
   <g id="text_3">
    <!-- $Z_\mathrm{DUT}$ -->
    <g transform="translate(78.152 80.543125)">
     <text>
      <tspan style="font: oblique 14px 'DejaVu Sans'" x="0" y="-0.796875">Z</tspan>
      <tspan style="font: 9.8px 'DejaVu Sans'" x="9.59082 17.137012 24.134961" y="1.5">DUT</tspan>
     </text>
    </g>
   </g>
   <g id="text_4">
    <text style="font: 14px 'DejaVu Sans', 'Bitstream Vera Sans', 'Computer Modern Sans Serif', 'Lucida Grande', 'Verdana', 'Geneva', 'Lucid', 'Arial', 'Helvetica', 'Avant Garde', sans-serif; text-anchor: end" x="180.672" y="80.543125" transform="rotate(-0 180.672 80.543125)">50Ω</text>
   </g>
   <g id="text_5">
    <text style="font: 14px 'DejaVu Sans', 'Bitstream Vera Sans', 'Computer Modern Sans Serif', 'Lucida Grande', 'Verdana', 'Geneva', 'Lucid', 'Arial', 'Helvetica', 'Avant Garde', sans-serif; text-anchor: middle" x="265.272" y="80.543125" transform="rotate(-0 265.272 80.543125)">V</text>
   </g>
   <g id="text_6">
    <text style="font: 14px 'DejaVu Sans', 'Bitstream Vera Sans', 'Computer Modern Sans Serif', 'Lucida Grande', 'Verdana', 'Geneva', 'Lucid', 'Arial', 'Helvetica', 'Avant Garde', sans-serif; text-anchor: end" x="243.672" y="80.543125" transform="rotate(-0 243.672 80.543125)">V2</text>
   </g>
  </g>
 </g>
 <defs>
  <clipPath id="p7e6b4059d2">
   <rect x="0" y="-0" width="287.952" height="176.4"/>
  </clipPath>
 </defs>
</svg>
